<svg fill="none" width="600" height="114" xmlns="http://www.w3.org/2000/svg" viewBox="0 0 600 114">
    <path d="M0 26.6h9.1v7.1H0v-7.1Zm0 10.9h9.1v31.3H0V37.5Zm17.8 20.8c2.3 2.6 5.6 4.2 9.1 4.4 2.2 0 5.6-.7 5.6-3 0-.8-.5-1.5-1.2-1.8-1.7-.6-3.5-1-5.3-1.2-1.4-.3-2.8-.6-4.1-1-1.9-.4-3.8-1.4-5.2-2.7-1.5-1.6-2.3-3.7-2.3-5.9 0-5.1 4.4-10.4 13.1-10.4 5 0 9.9 1.6 13.9 4.7l-5.7 5.2c-2.2-1.9-4.9-3-7.8-3.1-3.6 0-4.4 1.4-4.4 2.3 0 1.8 2 2.2 5 2.7C34.8 49.6 42 51.3 42 58.7c0 7.4-7.4 10.9-14.8 10.9-5.6.2-11.1-2-15.1-6l5.7-5.3Zm30.3-29.6h9.2v9.7h6.1V44h-6.2v14c0 1.9 0 3.5 2.4 3.5l3.3-.1v7.1c-1.6.3-3.2.5-4.8.5-3.1 0-6.6-.2-8.6-3-1.2-2.1-1.6-4.6-1.4-7V43.9h-4.4v-5.6h4.4v-9.6Zm19.3-2.1h9v7.1h-9v-7.1Zm0 10.9h9v31.3h-9V37.5Zm17.1-8.8h9.1v9.7h6V44h-6.1v14c0 1.9 0 3.5 2.4 3.5l3.3-.1v7.1c-1.6.3-3.2.5-4.8.5-3.2 0-6.6-.2-8.6-3-1.1-2.2-1.6-4.6-1.3-7V43.9H80v-5.6h4.5v-9.6Zm37.7 9h9.2v31.1h-9.2v-3c-.8 1.1-1.9 1.9-3.1 2.4-1.8.9-3.8 1.4-5.9 1.4-3 .2-6-1-7.9-3.3-1.6-2.2-1.9-4.1-1.9-9.2V37.4h9.2v19.3c-.1 1.3.1 2.6.7 3.7.9 1 2.2 1.6 3.6 1.6 1.1.1 2.2-.2 3.2-.7 1.6-.9 2.4-2.6 2.2-4.4V37.7h-.1Zm17.2-9h9.2v9.7h6V44h-6.2v14c0 1.9 0 3.5 2.4 3.5l3.3-.1v7.1c-1.6.3-3.2.5-4.8.5-3.2 0-6.6-.2-8.6-3-1.1-2.2-1.6-4.6-1.3-7V43.9h-4.5v-5.6h4.5v-9.6Zm50 24.5c0 7.9-4.5 16.5-16.7 16.5-8.7 0-16.8-5-16.8-16.5 0-9.5 6-17.1 18-16.5 12.7.7 15.5 10.8 15.5 16.5ZM166.8 47c-1.1 1.8-1.6 4-1.6 6.1 0 5 2.4 9.3 7.5 9.3s7.4-4 7.4-8.9c.2-2.8-.7-5.7-2.6-7.8-1.4-1.4-3.4-2-5.4-1.7-2.1 0-4.2 1.1-5.3 3Zm36.4-6.1c2.1-2.7 5.3-4.2 8.7-4 3.3-.3 6.6 1.1 8.7 3.6 2.5-2.4 5.8-3.7 9.2-3.6 3.5-.3 6.9 1.4 8.7 4.4.8 2.3 1 4.7.8 7.1v20.3h-9.1V52.5c.1-1.8 0-3.6-.3-5.3-.6-1.7-2.2-2.9-4-2.8-1.1 0-2.1.3-3 1-1.7 1.4-1.7 3.2-1.7 6.6v16.9h-9.1V50.4c.1-1.5-.2-3-.9-4.4-.9-1.1-2.2-1.7-3.6-1.6-.9 0-1.8.2-2.5.7-2 1.4-2.2 3.9-2.2 6v17.7h-9v-31h9.1c.2-.1.2 3.1.2 3.1Zm41.1 5.6c0-2.7 1.2-5.2 3.3-6.9 3-2.1 6.7-3 10.3-2.7 3.8 0 13.1.9 13.1 8.9v18.1c0 3.3.2 3.8.9 4.9h-9v-2.9c-2.6 2.3-6 3.6-9.6 3.7-2.6.2-5.3-.7-7.2-2.5-1.9-1.8-3-4.3-3-7 .2-4 2.8-7.5 6.6-8.9 4-1.3 8.1-2.2 12.3-2.9v-1.6c-.1-1.4-.2-3.8-3.5-3.8-4.1 0-4.6 2.5-4.8 3.6h-9.4Zm11.6 9.3c-1.6.6-3.9 1.5-3.9 3.9.1 1.8 1.6 3.2 3.5 3.2 1.1 0 2.2-.4 3.2-1 3.1-1.9 3.2-4.8 3.2-8l-6 1.9Zm28.9-14.9c2.5-2.2 5.7-3.5 9-3.6v8.1l-3.1.5c-4.4.8-5.7 1.4-5.7 5.4v17.5h-9.3V37.7h9V41h.1v-.1Zm12 5.6c0-2.7 1.2-5.3 3.3-6.9 3-2 6.6-3 10.2-2.7 3.8 0 13.1.9 13.1 8.9v18.1c0 3.3.2 3.8.9 4.9h-9v-2.9c-2.6 2.3-6 3.6-9.6 3.7-2.6.2-5.3-.7-7.2-2.5-1.9-1.8-3-4.3-3-7 .2-4 2.8-7.5 6.6-8.9 4-1.3 8.1-2.2 12.3-2.9v-1.6c-.1-1.4-.2-3.8-3.5-3.8-4 0-4.6 2.5-4.8 3.6h-9.3Zm11.7 9.3c-1.6.6-3.9 1.5-3.9 3.9.1 1.8 1.6 3.2 3.5 3.2 1.1 0 2.2-.4 3.2-1 3-1.9 3.1-4.8 3.2-8-.1 0-6 1.9-6 1.9Zm29.3-15.3c.9-1 1.9-1.9 3.1-2.4 1.8-.7 3.7-1.1 5.7-1.1 1.9 0 3.8.4 5.6 1.2 3.3 1.7 4.1 4.5 4.1 9.4v21.3h-9.1V51.4c.2-1.6 0-3.1-.4-4.7-.7-1.6-2.4-2.5-4.1-2.4-4.9 0-4.9 3.9-4.9 7.8v16.8h-9.2V37.7h9.2v2.8Zm43.5 24.2c-2.4 1.8-5.3 2.7-8.2 2.6-2.5.1-5-.7-7.1-2-4.2-2.7-5.8-7.5-5.8-12.9 0-6.3 2.9-15.3 13.2-15.3 3.1-.1 6.2 1.1 8.3 3.4v-2.9h8.6v29.9c-.1 3.4-.2 7.4-4.8 10-3.3 1.7-6.9 2.5-10.6 2.4-4.3.3-8.6-1.1-11.9-3.9-1.8-2-2.7-4.6-2.4-7.3h9.5c-.1 1.9 1 3.6 2.7 4.4.9.4 1.9.6 2.9.6 5.6 0 5.6-3.3 5.6-5.9v-3.1Zm-11.7-12.4c0 2.6.2 8 5.9 8 4.7 0 5.7-3.6 5.7-8 .1-2.1-.3-4.2-1.1-6.1-1.2-1.6-3.1-2.4-5-2.2-4.4.2-5.5 4-5.5 8.3Zm58.1.9c0 7.9-4.5 16.5-16.7 16.5-8.7 0-16.8-5-16.8-16.5 0-9.5 6-17.1 18-16.5 12.7.7 15.6 10.8 15.5 16.5ZM405.1 47c-1.1 1.8-1.6 4-1.6 6.1 0 5 2.4 9.3 7.5 9.3s7.4-4 7.4-8.9c.2-2.8-.7-5.7-2.6-7.8-1.4-1.4-3.4-2-5.4-1.7-2.1 0-4.2 1.1-5.3 3Zm35.9-6.5c.8-1 1.9-1.9 3.1-2.4 1.8-.7 3.7-1.1 5.7-1.1 1.9 0 3.8.4 5.6 1.2 3.3 1.7 4.1 4.5 4.1 9.4v21.3h-9.1V51.4c.2-1.6 0-3.1-.4-4.7-.7-1.6-2.4-2.6-4.1-2.4-4.9 0-4.9 3.9-4.9 7.8v16.8h-9.2V37.7h9.2v2.8Zm23.5-13.9h9.1v7.1h-9.1v-7.1Zm0 10.9h9.1v31.3h-9.1V37.5ZM550.1 0c-16.7 0-32.2 8.2-41.5 22.1h3.4v4.8c3.2-4.1 8.1-6.3 13.3-6.1 5-.4 9.9 1.6 13.1 5.5 3.7-3.6 8.7-5.6 13.9-5.5 7.7 0 11.6 3.8 13.1 6.7 1.2 2.5 1.3 5.7 1.3 10.8v30.6h-13.8V44.2c.1-2.7-.1-5.3-.5-8-.8-2.6-3.3-4.3-6-4.2-1.6 0-3.2.5-4.5 1.4-2.6 2.1-2.6 4.7-2.6 9.9v25.5h-13.6V41.1c.2-2.3-.3-4.5-1.4-6.6-1.3-1.6-3.3-2.5-5.4-2.4-1.3 0-2.6.4-3.8 1.1-3 2.1-3.1 5.8-3.1 9.1v26.6h-8.3c9.5 23.2 34.7 35.9 59 29.5 24.3-6.4 40-29.8 36.8-54.7-3.1-25-24.3-43.7-49.4-43.7Zm-475 103.5c.8.7 1.8 1 2.8.9.8 0 1.5-.2 2.2-.7.5-.3.9-.8 1.2-1.4h4c-.4 1.6-1.4 3.1-2.8 4.1-1.4.8-3 1.3-4.6 1.2-1.2 0-2.4-.2-3.5-.6-1-.4-1.8-1-2.5-1.7-.7-.8-1.3-1.7-1.6-2.6-.4-1.1-.6-2.2-.6-3.4 0-1.1.3-2.2.7-3.2.4-1 .9-1.9 1.6-2.6.7-.7 1.6-1.3 2.6-1.7 1-.4 2.2-.7 3.3-.6 1.2-.1 2.4.2 3.5.7 1 .5 1.8 1.3 2.5 2.2.7.9 1.2 1.9 1.5 3 .3 1.2.3 2.4.2 3.6H74.2c-.2.9.1 2 .9 2.8Zm4.9-8.3c-.6-.6-1.5-.9-2.4-.9-.6 0-1.2.1-1.7.3-.4.2-.8.5-1.1.9-.3.3-.5.7-.6 1.1-.1.3-.2.7-.2 1h7.1c-.1-.8-.5-1.7-1.1-2.4Zm12.1-3.7v2.2c.5-.9 1.3-1.6 2.2-2 .8-.4 1.8-.6 2.7-.6 1 0 1.9.1 2.9.5.7.3 1.3.7 1.8 1.3.4.6.8 1.3.9 2.1.2.9.3 1.8.3 2.7v9.8h-4.4v-9c.1-1-.1-2-.6-2.9-.5-.7-1.3-1-2.2-1-1-.1-1.9.3-2.6 1-.6 1-.9 2.3-.8 3.5v8.3h-4.4V91.6c0-.1 4.2-.1 4.2-.1Zm18.4-6v8.2c.5-.9 1.3-1.6 2.2-2 .8-.4 1.6-.6 2.5-.6 1 0 2 .1 2.9.5.7.3 1.3.7 1.8 1.3.4.6.8 1.3.9 2.1.2.9.3 1.8.3 2.7v9.7h-4.4v-9c.1-1-.1-2-.6-2.9-.5-.7-1.3-1.1-2.2-1-1-.1-1.9.3-2.6 1-.6 1-.9 2.3-.8 3.5v8.3h-4.4V85.4c-.1.1 4.4.1 4.4.1Zm14.3 8.3c.4-.7 1-1.2 1.7-1.6.7-.4 1.5-.7 2.3-.9.9-.2 1.7-.3 2.6-.3.8 0 1.6.1 2.4.2.8.1 1.5.3 2.2.7.7.3 1.2.8 1.7 1.4.5.7.7 1.5.6 2.3v8.2c0 .7 0 1.4.1 2.1 0 .5.2 1 .4 1.5h-4.4c-.1-.3-.1-.5-.2-.8v-.8c-.7.7-1.5 1.2-2.4 1.5-.9.3-1.9.4-2.9.4-.7 0-1.5-.1-2.2-.3-.6-.2-1.2-.5-1.7-.9s-.9-.9-1.2-1.5c-.3-.7-.4-1.4-.4-2.2 0-.8.1-1.5.5-2.2.3-.5.7-1 1.2-1.4.5-.4 1.1-.6 1.7-.8.6-.2 1.3-.3 1.9-.4.7-.1 1.3-.2 1.9-.2.6-.1 1.1-.2 1.7-.3.4-.1.8-.3 1.2-.5.3-.3.4-.6.4-1s-.1-.8-.2-1.1c-.1-.3-.4-.5-.6-.6-.3-.2-.6-.3-.9-.3h-1.1c-.7 0-1.4.1-2 .5-.5.5-.9 1.1-.9 1.8h-4.4c.3-.9.6-1.7 1-2.5Zm8.6 6.1c-.3.1-.6.2-.9.2l-1 .2-1 .2-1 .2c-.3.1-.6.2-.8.4-.2.2-.4.4-.6.7-.2.3-.2.7-.2 1 0 .3.1.7.2 1 .1.3.3.5.6.6.3.2.6.3.9.3h1c.7 0 1.4-.1 2-.4.4-.2.8-.6 1-1 .2-.4.4-.8.4-1.2v-2.6c-.2.2-.4.3-.7.4h.1Zm12.6-8.4v2.2c.5-.9 1.3-1.6 2.2-2 .8-.4 1.7-.6 2.6-.6 1 0 2 .1 2.9.5.7.3 1.3.7 1.8 1.3.4.6.8 1.3.9 2.1.2.9.3 1.8.3 2.7v9.7h-4.4v-9c.1-1-.1-2-.6-2.9-.5-.7-1.3-1-2.2-1-1-.1-1.9.3-2.6 1-.6 1-.9 2.3-.8 3.5v8.3h-4.4V91.5h4.3Zm21.5 2.8c-.6 0-1.2.1-1.7.5-.5.3-.9.7-1.2 1.2-.3.5-.5 1.1-.6 1.7-.1.6-.2 1.2-.2 1.8 0 .6.1 1.2.2 1.7.1.6.3 1.1.6 1.6s.7.9 1.1 1.2c.5.3 1.1.5 1.7.5.9.1 1.8-.3 2.4-.9.6-.7 1-1.5 1-2.3h4.2c-.1 1.8-1 3.6-2.4 4.8-1.5 1.1-3.3 1.7-5.2 1.7-1.1 0-2.2-.2-3.3-.6-.9-.4-1.8-.9-2.5-1.7-.7-.7-1.3-1.6-1.6-2.6-.4-1-.6-2.1-.6-3.3 0-1.2.1-2.3.5-3.5.3-1 .9-1.9 1.6-2.7.7-.7 1.6-1.3 2.6-1.6 1.1-.4 2.3-.7 3.4-.6.9 0 1.8.1 2.7.4.8.2 1.6.6 2.3 1.1.7.5 1.2 1.1 1.7 1.9.5.8.7 1.7.7 2.6h-4.2c0-.8-.4-1.5-1-2s-1.4-.8-2.2-.7v-.2Zm10.1-5.3v-3.6h4.4V89h-4.4Zm4.4 2.5v15.8h-4.4V91.5h4.4Zm7.5 0v2.2c.5-.9 1.3-1.6 2.2-2 .9-.4 1.8-.6 2.8-.6 1 0 1.9.1 2.9.5.7.3 1.3.7 1.7 1.3.4.6.7 1.3.9 2.1.2.9.3 1.8.3 2.7v9.7h-4.4v-9c.1-1-.1-2-.6-2.9-.5-.7-1.3-1.1-2.2-1-1-.1-1.9.3-2.6 1-.6 1-.9 2.3-.8 3.5v8.3h-4.4V91.5h4.2Zm29 17c-.2.8-.6 1.6-1.1 2.2-.7.8-1.5 1.4-2.5 1.8-1.4.6-2.9.8-4.4.7-.8 0-1.6-.1-2.4-.3-.8-.2-1.5-.5-2.2-.9-.7-.4-1.2-.9-1.6-1.6-.5-.7-.7-1.5-.7-2.3h4.4c.1.7.6 1.3 1.2 1.7.6.3 1.3.5 2.1.5 1 .1 1.9-.3 2.5-1 .6-.8.9-1.8.8-2.8v-2.2c-.4.8-1.2 1.5-2 1.9-.9.4-1.8.6-2.8.6-1.1 0-2.1-.2-3.1-.6-.9-.4-1.6-1-2.2-1.7-.6-.8-1-1.6-1.2-2.5-.3-1-.4-2-.4-3.1 0-1 .1-2 .4-3 .3-.9.7-1.8 1.3-2.5.6-.7 1.3-1.3 2.2-1.7.9-.4 1.9-.6 2.8-.6.9 0 1.9.2 2.7.6.8.4 1.5 1.1 2 2v-2.2h4.1v14.8c0 .7-.1 1.5-.3 2.2.2-.1.4 0 .4 0Zm-5.9-5.3c.5-.2.9-.6 1.2-1 .3-.4.6-.9.7-1.4.2-.5.2-1.1.2-1.6 0-.6-.1-1.2-.2-1.8-.1-.5-.3-1.1-.6-1.6-.3-.4-.7-.8-1.1-1.1-.5-.3-1.2-.4-1.8-.4-.5 0-1.1.1-1.6.4-.4.2-.8.6-1.1 1-.3.4-.5.9-.6 1.4-.1.6-.2 1.1-.2 1.7 0 .6 0 1.1.1 1.7.1.5.3 1 .6 1.5.3.4.6.8 1.1 1.1.5.3 1.1.5 1.7.4.5.1 1.1 0 1.6-.3Zm26.8-11.7v2.9h-3.2v7.8c-.1.5.1 1 .4 1.5.4.3.9.4 1.5.4h1.3v3.3c-.4.1-.8.1-1.2.1h-1.3c-.6 0-1.3-.1-1.9-.2-.6-.1-1.1-.3-1.6-.5-.5-.3-.8-.7-1.1-1.1-.3-.6-.4-1.3-.4-1.9v-9.3h-2.6v-2.9h2.6v-4.9h4.4v4.7c-.1.1 3.1.1 3.1.1Zm2.7 2.3c.4-.7 1-1.2 1.7-1.6.7-.4 1.5-.7 2.3-.9.9-.2 1.7-.3 2.6-.3.8 0 1.6.1 2.4.2.8.1 1.5.3 2.2.7.6.3 1.2.8 1.6 1.4.5.7.7 1.5.6 2.3v8.2c0 .7 0 1.4.1 2.1 0 .5.2 1 .4 1.5h-4.4c-.1-.3-.1-.5-.2-.8-.1-.3-.1-.5-.1-.8-.7.7-1.5 1.2-2.4 1.5-.9.3-1.9.4-2.9.4-.7 0-1.5-.1-2.2-.3-.6-.2-1.2-.5-1.7-.9s-.9-.9-1.1-1.5c-.3-.7-.4-1.4-.4-2.2 0-.8.1-1.5.5-2.2.3-.5.7-1 1.2-1.4.5-.4 1.1-.6 1.7-.8.6-.2 1.3-.3 1.9-.4.6-.1 1.3-.2 1.9-.2.6-.1 1.1-.2 1.7-.3.4-.1.8-.3 1.2-.5.3-.2.4-.5.4-.9s0-.8-.2-1.1c-.1-.3-.4-.5-.6-.6-.3-.2-.6-.3-.9-.3h-1.1c-.7 0-1.4.2-2 .5-.5.5-.8 1.1-.9 1.8H241c0-.9.3-1.8.8-2.5l.3-.1Zm8.5 6.1c-.3.1-.6.2-.9.2l-1 .2-1 .2c-.3.1-.6.1-1 .2-.3.1-.6.2-.8.4-.2.2-.4.4-.6.7-.2.3-.2.7-.2 1 0 .3.1.7.2 1 .1.3.3.5.6.6.3.2.6.3.9.3h1c.7 0 1.4-.1 2-.4.4-.2.8-.6 1-1 .2-.4.4-.8.4-1.2v-2.6c-.1.2-.4.3-.6.4Zm12.9-14.4v21.9h-4.3V85.5h4.3Zm8.1 18c.8.7 1.8 1 2.8.9.8 0 1.5-.2 2.2-.7.5-.3.9-.8 1.2-1.4h3.8c-.4 1.6-1.4 3.1-2.8 4.1-1.4.8-3 1.3-4.6 1.2-1.1 0-2.2-.2-3.2-.6-1-.4-1.8-1-2.5-1.7-.7-.8-1.2-1.7-1.6-2.6-.4-1.1-.6-2.2-.6-3.4 0-1.1.2-2.2.6-3.3.4-1 .9-1.9 1.6-2.6.7-.7 1.6-1.3 2.5-1.7 1-.4 2.2-.7 3.3-.6 1.2 0 2.4.2 3.5.8 1 .5 1.8 1.3 2.5 2.2.7.9 1.1 1.9 1.4 3 .3 1.1.4 2.3.3 3.4h-11.4c-.1 1.1.3 2.2 1 3Zm4.9-8.3c-.6-.6-1.5-.9-2.4-.9-.6 0-1.2.1-1.7.3-.4.2-.8.5-1.1.9-.3.3-.5.7-.6 1.1-.1.3-.2.7-.2 1h7c-.1-.8-.5-1.7-1-2.4Zm12.1-3.7v2.2c.5-.9 1.3-1.6 2.2-2 .8-.4 1.8-.6 2.7-.6 1 0 1.9.1 2.9.5.7.3 1.3.7 1.7 1.3.4.6.7 1.3.9 2.1.2.9.3 1.8.3 2.7v9.8h-4.4v-9c.1-1-.1-2-.6-2.9-.5-.7-1.3-1-2.2-1-1-.1-1.9.3-2.6 1-.6 1-.9 2.3-.8 3.5v8.3h-4.4V91.6h4.3v-.1Zm22.7 0v2.9h-3.2v7.8c-.1.5 0 1.1.4 1.5.4.4.9.5 1.5.4h1.4v3.3c-.4 0-.8 0-1.2.1h-1.3c-.6 0-1.3-.1-1.9-.2-.6-.1-1.1-.2-1.6-.5s-.8-.7-1.1-1.1c-.3-.6-.4-1.3-.4-1.9v-9.3h-2.6v-2.9h2.6v-4.9h4.4v4.7h3v.1Zm14.3 11.9c.2.3.4.6.7.8.3.2.7.4 1.1.5.4.1.8.2 1.2.2h1l.9-.3c.3-.2.5-.4.7-.6.2-.3.3-.6.3-1 0-.7-.4-1.1-1.3-1.5-1.2-.4-2.4-.7-3.6-1-.6-.1-1.2-.3-1.8-.5-.6-.2-1.1-.4-1.6-.8-.5-.3-.9-.7-1.1-1.2-.3-.5-.4-1.2-.4-1.8 0-.9.2-1.7.6-2.5.4-.6.9-1.2 1.6-1.6.7-.4 1.4-.6 2.2-.8.8-.2 1.7-.2 2.5-.2s1.7.1 2.5.2 1.5.4 2.2.8c.6.4 1.2.9 1.6 1.6.5.7.7 1.6.8 2.4h-4.1c0-.7-.3-1.4-.9-1.7-.6-.3-1.3-.5-2-.4h-.8c-.3 0-.5.1-.8.2-.2.1-.4.3-.6.4-.2.2-.3.5-.2.8 0 .4.2.7.4 1 .3.3.7.5 1.1.6.5.2 1 .3 1.6.4l1.8.4c.6.2 1.2.3 1.9.5.6.2 1.1.5 1.6.8.5.3.9.7 1.1 1.2.3.6.4 1.2.4 1.9 0 .9-.2 1.8-.6 2.6-.4.7-1 1.3-1.6 1.7-.7.4-1.5.7-2.3.9-.9.2-1.8.3-2.6.3-.9 0-1.8-.1-2.7-.3-.8-.2-1.6-.5-2.3-.9-1.5-.9-2.4-2.6-2.4-4.4h4.1c-.5.5-.4.9-.2 1.3ZM338.5 89v-3.6h4.4V89h-4.4Zm4.3 2.5v15.8h-4.4V91.5h4.4Zm7.6 0v2.2c.5-.9 1.3-1.6 2.2-2 .8-.4 1.8-.6 2.7-.6 1 0 2 .1 2.9.5.7.3 1.3.7 1.7 1.3.5.6.8 1.3.9 2.1.2.9.3 1.8.2 2.7v9.8h-4.4v-9c.1-1-.1-2-.6-2.9-.5-.7-1.3-1.1-2.2-1-1-.1-1.9.3-2.6 1-.6 1-.9 2.3-.8 3.5v8.3H346V91.6h4.4v-.1Zm21.5 2.8c-.6 0-1.2.1-1.7.5-.5.3-.9.7-1.2 1.2-.3.5-.5 1.1-.6 1.7-.1.6-.2 1.2-.2 1.8 0 .6.1 1.2.2 1.7.1.6.3 1.1.6 1.6s.7.9 1.1 1.2c.5.3 1.1.5 1.7.5.9.1 1.8-.3 2.4-.9.6-.6 1-1.5 1-2.3h4.2c-.2 1.9-1 3.6-2.4 4.8-1.5 1.1-3.3 1.7-5.2 1.7-1.1 0-2.2-.2-3.3-.6-1-.4-1.8-.9-2.5-1.7-.7-.7-1.3-1.6-1.6-2.6-.4-1-.6-2.1-.6-3.3 0-1.2.2-2.3.5-3.4.3-1 .9-1.9 1.6-2.7.7-.8 1.6-1.4 2.5-1.8 1.1-.4 2.3-.7 3.4-.6.9 0 1.8.1 2.7.4.8.2 1.6.6 2.3 1.1.7.5 1.2 1.1 1.7 1.9.5.8.7 1.7.7 2.6H375c-.1-.8-.4-1.5-1-2-.5-.6-1.3-.8-2.1-.8Zm14.7 9.2c.8.7 1.8 1 2.8.9.8 0 1.5-.2 2.2-.7.5-.3.9-.8 1.2-1.4h3.8c-.4 1.6-1.4 3.1-2.8 4.1-1.4.8-3 1.3-4.6 1.2-1.1 0-2.3-.2-3.3-.6-1-.4-1.8-1-2.6-1.7-.7-.8-1.2-1.7-1.6-2.6-.4-1.1-.6-2.2-.6-3.4 0-1.1.2-2.2.6-3.3.4-1 .9-1.9 1.7-2.6.7-.7 1.6-1.3 2.6-1.7 1-.4 2.2-.7 3.3-.6 1.2 0 2.4.2 3.5.8 1 .5 1.8 1.3 2.5 2.2.7.9 1.1 1.9 1.4 3 .3 1.1.4 2.3.3 3.5h-11.4c0 1.1.3 2.2 1.1 3.1l-.1-.2Zm4.9-8.3c-.6-.6-1.5-.9-2.4-.9-.6 0-1.2.1-1.7.3-.4.2-.8.5-1.1.9-.3.3-.5.7-.6 1.1-.1.3-.2.7-.2 1h7.1c-.2-.8-.6-1.7-1.1-2.4Zm22.5 12.1V93.4h-5.3v-3.3c.7 0 1.5 0 2.2-.2.7-.1 1.3-.3 1.9-.7.6-.3 1-.8 1.4-1.3.4-.6.7-1.3.8-2.1h3.5v21.4c-.1.1-4.5.1-4.5.1Zm15.5-3.6c.5.5 1.2.8 1.9.8s1.4-.2 1.9-.7c.5-.5.9-1 1.2-1.7.3-.7.5-1.4.7-2.2.1-.7.2-1.4.3-2-.5.8-1.3 1.4-2.2 1.8-1.7.8-3.7.8-5.4 0-.8-.4-1.6-.9-2.2-1.6-.6-.6-1-1.4-1.3-2.2-.3-.8-.4-1.7-.4-2.5 0-1 .2-2.1.5-3.1.7-1.9 2.1-3.4 3.9-4.2 1-.4 2-.6 3.1-.6 1.4-.1 2.8.3 4 1 1 .6 1.9 1.5 2.5 2.5.6 1.1 1.1 2.3 1.3 3.6.2 1.3.4 2.7.4 4 0 1.3-.2 2.6-.5 3.9-.3 1.3-.8 2.5-1.5 3.6s-1.5 1.9-2.6 2.6c-1.2.7-2.5 1-3.9 1-.9 0-1.7-.1-2.6-.4-.8-.2-1.5-.6-2.2-1.1-.6-.5-1.1-1.1-1.5-1.9-.4-.8-.7-1.6-.8-2.5h4.1c.4.7.7 1.4 1.3 1.9Zm3.6-7c.4-.2.8-.5 1.1-.9.3-.4.5-.8.7-1.3.1-.5.2-1 .2-1.5s-.1-1-.2-1.4c-.1-.4-.4-.9-.7-1.3-.3-.4-.7-.7-1.1-.9-.5-.2-1-.3-1.5-.3s-1 .1-1.4.3c-.4.2-.8.5-1 .9-.3.4-.5.8-.6 1.2-.1.5-.2 1-.2 1.4 0 .5.1 1 .2 1.5s.3.9.6 1.3.6.7 1 .9c.4.2.9.4 1.4.3.5.1 1.1 0 1.5-.2Zm15.7-2.2c.5 0 1-.2 1.5-.3.4-.2.8-.5 1.1-.8.3-.4.5-.9.5-1.5.1-.8-.3-1.7-.9-2.2-.6-.5-1.4-.8-2.2-.7-1-.1-1.9.3-2.5 1.1-.6.8-.9 1.8-.8 2.7h-4c0-1 .2-2.1.6-3 .7-1.7 2-3.1 3.8-3.8 1-.4 2-.6 3-.5.9 0 1.7.1 2.6.4.8.2 1.6.6 2.3 1.1.7.5 1.2 1.1 1.7 1.9.4.8.7 1.6.6 2.5 0 1-.2 1.9-.7 2.8-.5.8-1.3 1.4-2.2 1.6 1.1.2 2.1.8 2.8 1.7.7.9 1 2 1 3.1 0 1-.2 2.1-.6 3-.4.8-1 1.6-1.8 2.2-.8.6-1.6 1-2.5 1.3-2 .7-4.2.7-6.3 0-1.9-.6-3.4-2.1-4.1-3.9-.4-1.1-.6-2.2-.5-3.3h4.1c0 .6.1 1.1.3 1.6.2.5.4.9.7 1.3.3.4.7.7 1.2.9 1.4.6 3 .4 4.1-.6.7-.6 1-1.5 1-2.5 0-.7-.1-1.3-.5-1.9-.3-.4-.7-.7-1.2-.9-.5-.2-1.1-.3-1.6-.3h-1.7v-3.1c.2.2.7.2 1.2.1Zm15-5-.9 4.9c.5-.6 1.2-1 1.9-1.3 1.7-.6 3.5-.5 5.1.2.8.4 1.5.9 2.1 1.6.6.7 1 1.5 1.3 2.3.3.9.5 1.9.4 2.8 0 1.1-.2 2.1-.6 3.1-.4.9-1 1.8-1.7 2.5s-1.6 1.2-2.5 1.6c-1 .4-2 .6-3.1.5-1 0-2-.1-3-.4-.9-.3-1.8-.7-2.5-1.3-.7-.6-1.3-1.3-1.7-2.2-.5-.9-.7-1.9-.7-3h4.4c.1.9.4 1.7 1.1 2.3.7.6 1.5.9 2.4.9.5 0 1.1-.1 1.6-.3.4-.2.8-.5 1.2-.9.3-.4.6-.8.7-1.3.2-.5.3-1 .3-1.6 0-.5-.1-1-.2-1.6-.2-.5-.4-.9-.7-1.3-.3-.4-.7-.7-1.2-.9-1.1-.4-2.4-.4-3.5.1-.5.3-1 .8-1.4 1.3h-3.9l2.2-11.8h12v3.6l-9.1.2Z" fill="currentColor"></path>
</svg>