<svg fill="none" xmlns="http://www.w3.org/2000/svg" viewBox="0 0 32 32" class="icon mr-2" data-v-83a48bee=""><path fill-rule="evenodd" clip-rule="evenodd" d="M28.985 17.817c.04-2.932.01-5.288-.25-6.904-.128-.8-.325-1.507-.657-2.022a1.992 1.992 0 0 0-.69-.673 1.729 1.729 0 0 0-.978-.214c-.362.025-.71.166-1.018.335a6.395 6.395 0 0 0-.968.676l-.012.01c-2.338-.062-4.388.098-6.554.975-2.256.912-4.57 2.574-7.472 5.423a46.353 46.353 0 0 0-1.943 1.295 49.46 49.46 0 0 0-1.102-.882c-.672-.517-1.37-1.005-1.999-1.274-.315-.134-.674-.24-1.041-.23-.4.012-.788.165-1.077.5-.383.445-.675 1.166-.875 1.91A10.469 10.469 0 0 0 2 19.3c-.007.873.11 1.785.455 2.541.353.776.978 1.438 1.966 1.623l.061.011 20.696.51c.78.097 1.747-.23 2.497-1.19.755-.965 1.276-2.541 1.31-4.977Zm-19.34-.122c.59.47 1.126.87 1.582 1.135 1.937 1.127 5.112.955 7.09-2.225.296-.475.618-.97.957-1.47-3.56-.127-6.449.737-8.032 1.507-.724.46-1.237.804-1.598 1.053Zm13.243-7.194c-1.592.047-2.998.276-4.451.864-1.35.546-2.773 1.415-4.433 2.786a20.863 20.863 0 0 1 6.19-.444l-.012.138a41.133 41.133 0 0 1 2.169-2.743c.18-.207.359-.408.537-.601Zm3.627-1.022c.066-.005.096.007.118.02.029.016.088.06.165.179.165.255.323.719.443 1.464.236 1.473.273 3.705.232 6.655-.032 2.27-.52 3.486-1 4.1-.47.6-.935.647-1.116.619l-.049-.007L4.653 22c-.345-.082-.613-.317-.817-.762-.222-.488-.33-1.165-.323-1.928a9.024 9.024 0 0 1 .3-2.195c.176-.659.39-1.107.548-1.307.057.002.177.023.376.108.436.185 1.001.566 1.668 1.08.433.334.876.697 1.326 1.066.237.194.476.39.717.585.682.55 1.379 1.088 2.005 1.452 2.627 1.527 6.734 1.168 9.157-2.728 1.083-1.74 2.527-3.742 3.894-5.314.684-.787 1.334-1.45 1.897-1.915.282-.232.528-.404.733-.517.213-.117.336-.144.381-.147Z" fill="#fff"></path></svg>