<svg fill="none" xmlns="http://www.w3.org/2000/svg" viewBox="0 0 33 32" class="icon mr-2" data-v-83a48bee=""><path fill-rule="evenodd" clip-rule="evenodd" d="M26.068 23v-6.325a3.327 3.327 0 1 0-6.655 0v6.324h-1.166v-6.324a4.494 4.494 0 0 1 8.988 0v6.324h-1.167Z" fill="#fff"></path><path fill-rule="evenodd" clip-rule="evenodd" d="M28.833 23v-6.74a6.093 6.093 0 0 0-12.185 0V23h-1.167v-6.74a7.26 7.26 0 0 1 14.519 0V23h-1.167Zm-16.247 0v-6.325a3.327 3.327 0 1 0-6.654 0v6.324H4.765v-6.324a4.494 4.494 0 1 1 8.988 0v6.324h-1.167Z" fill="#fff"></path><path fill-rule="evenodd" clip-rule="evenodd" d="M15.352 23v-6.74a6.093 6.093 0 1 0-12.185 0V23H2v-6.74a7.26 7.26 0 1 1 14.518 0V23h-1.166Z" fill="#fff"></path></svg>